<svg width="118" height="118" viewBox="0 0 118 118" fill="none" xmlns="http://www.w3.org/2000/svg">
<g clip-path="url(#clip0)">
<rect x="-2" width="120" height="122" rx="18" fill="white"/>
<path d="M91.7222 77.9652C89.2742 77.8149 87.6256 79.8692 87.6256 79.8692C87.6256 79.8692 86.1769 78.5665 84.2285 78.1155C81.3809 77.4641 79.4825 79.3682 79.4825 79.3682C79.2327 76.913 84.2285 73.6561 87.4258 77.5644C87.7255 76.3618 89.8737 75.3597 91.6222 75.51C91.3225 72.1529 90.5731 68.7457 89.2742 65.4888C86.9762 65.7393 85.7272 67.7936 85.7272 67.7936C85.7272 67.7936 84.1786 66.7414 82.2802 66.5911C79.5325 66.3406 77.9838 68.3949 77.9838 68.3949C77.4343 66.09 81.7306 62.4323 85.2277 65.6391C85.3276 64.8374 86.3767 63.6348 88.2751 63.234C86.7764 60.2276 84.6282 57.0709 82.0304 54.265C80.6316 55.0166 80.0321 56.5198 80.0321 56.5198C77.6341 55.4675 74.5867 55.9185 73.4377 58.2735C72.5884 56.3694 75.6858 52.5113 79.2327 54.766C79.2327 54.766 79.1328 53.7138 80.5316 52.7618C78.0837 50.4068 75.436 48.4527 72.6383 46.7992C71.9889 47.7512 71.839 48.8034 71.839 48.8034C69.0913 48.3024 67.0431 49.8556 66.6434 51.4089C66.6434 51.4089 65.7442 50.4068 66.6434 48.603C67.7425 46.4484 70.2903 47.0497 70.2903 47.0497C70.2903 47.0497 70.0405 46.4484 70.4902 45.5966C53.9042 37.0285 33.6714 39.183 28.4258 39.6841C27.7764 35.1745 26.5274 32.068 25.0287 29.8633C24.2294 30.665 23.1303 31.2663 21.8813 31.4166C20.1328 31.6671 18.4343 31.4667 17.0854 31.3665C17.0355 33.7215 16.5359 36.2268 14.9372 38.0306C11.5401 41.8888 1.94824 46.0476 1.94824 46.0476C1.94824 46.0476 9.79159 54.9164 26.3775 44.6947C43.3132 44.0433 62.5469 51.3588 68.4419 66.8917C76.3852 87.786 66.1438 103.97 59.2497 111.887C57.8009 113.891 59.3496 117.198 63.3962 116.447C70.8399 114.442 76.1853 110.284 80.9313 106.526C84.6781 103.519 86.4266 100.563 86.7764 97.3563C87.3758 92.2455 80.9813 91.3937 77.1845 93.8489C81.4808 89.2391 87.6256 90.7924 88.6248 93.9491C90.673 89.189 91.8221 83.6272 91.7222 77.9652ZM75.5359 103.97C74.5867 103.97 73.7874 103.169 73.7874 102.217C73.7874 101.265 74.5367 100.463 75.5359 100.463C76.535 100.463 77.2844 101.265 77.2844 102.217C77.2344 103.219 76.4851 103.97 75.5359 103.97Z" fill="#3378B7"/>
<path d="M117.95 107.728C117.85 105.373 117.95 92.0451 117.95 91.043C117.95 84.8799 115.452 85.882 114.703 88.1869C113.554 90.8926 111.955 96.5546 110.806 99.7113C107.809 107.728 103.312 111.887 99.4658 114.894C97.2177 116.647 97.6173 118 99.9653 117.9C109.108 117.549 112.005 118.1 113.953 117.9C116.451 117.649 118.4 117.8 117.95 107.728ZM111.905 103.62C112.555 103.269 113.404 103.519 113.804 104.271C114.203 104.972 114.003 105.874 113.354 106.225C112.705 106.576 111.855 106.325 111.456 105.574C111.056 104.872 111.256 103.97 111.905 103.62ZM105.311 116.096C104.511 115.996 103.912 115.344 103.962 114.593C104.062 113.841 104.761 113.34 105.561 113.39C106.36 113.491 106.959 114.142 106.909 114.894C106.859 115.645 106.11 116.196 105.311 116.096ZM113.704 114.142C112.854 115.094 111.506 115.244 110.606 114.493C109.757 113.741 109.707 112.338 110.556 111.386C111.406 110.434 112.754 110.284 113.654 111.035C114.503 111.787 114.503 113.19 113.704 114.142ZM115.402 99.7113C114.803 99.6612 114.403 99.1602 114.453 98.6591C114.503 98.1079 115.003 97.7572 115.602 97.8073C116.202 97.8574 116.601 98.3585 116.551 98.8595C116.501 99.4107 116.002 99.7614 115.402 99.7113Z" fill="#FBB03B"/>
<path d="M2.44826 108.33C1.4491 106.876 0.100247 108.63 0.0502898 110.284C0.000332151 111.937 -0.449287 115.244 4.39661 117.248C8.2933 118.852 11.9402 117.299 12.6896 115.996C13.7886 114.242 6.34496 113.992 2.44826 108.33Z" fill="#8CC63F"/>
<path d="M3.24715 59.3258C3.24715 60.1275 2.5977 60.7788 1.79838 60.7788C0.999059 60.7788 0.349609 60.1275 0.349609 59.3258C0.349609 58.5241 0.999059 57.8727 1.79838 57.8727C2.5977 57.8727 3.24715 58.5241 3.24715 59.3258Z" fill="#8C6239"/>
<path d="M5.94493 38.8824C5.94493 40.3355 4.74594 41.5381 3.29717 41.5381C1.8484 41.5381 0.649414 40.3355 0.649414 38.8824C0.649414 37.4294 1.79844 36.2268 3.29717 36.2268C4.74594 36.2769 5.94493 37.4294 5.94493 38.8824Z" fill="#8C6239"/>
<path d="M6.1447 78.9172C6.1447 80.5206 4.8458 81.8233 3.24715 81.8233C1.64851 81.8233 0.349609 80.5206 0.349609 78.9172C0.349609 77.3138 1.64851 76.011 3.24715 76.011C4.8458 75.9609 6.1447 77.2637 6.1447 78.9172Z" fill="#8C6239"/>
<path d="M95.6695 60.5282C95.6695 61.5304 94.8702 62.3822 93.8211 62.3822C92.8219 62.3822 91.9727 61.5805 91.9727 60.5282C91.9727 59.5261 92.772 58.6743 93.8211 58.6743C94.8202 58.6743 95.6695 59.5261 95.6695 60.5282Z" fill="#8C6239"/>
<path d="M78.0837 114.793C78.0837 115.645 77.3843 116.347 76.535 116.347C75.6857 116.347 74.9863 115.645 74.9863 114.793C74.9863 113.941 75.6857 113.24 76.535 113.24C77.3843 113.24 78.0837 113.941 78.0837 114.793Z" fill="#8C6239"/>
<path d="M7.74393 53.3129C7.74393 54.5155 6.74478 55.5176 5.54579 55.5176C4.34681 55.5176 3.34766 54.5155 3.34766 53.3129C3.34766 52.1104 4.34681 51.1083 5.54579 51.1083C6.79473 51.1083 7.74393 52.1104 7.74393 53.3129Z" fill="#8C6239"/>
<path d="M7.49422 86.2327C7.49422 87.0344 6.84477 87.6858 6.04545 87.6858C5.24613 87.6858 4.59668 87.0344 4.59668 86.2327C4.59668 85.431 5.24613 84.7797 6.04545 84.7797C6.84477 84.7797 7.49422 85.431 7.49422 86.2327Z" fill="#8C6239"/>
<path d="M40.666 95.0012C46.7608 91.9447 47.9098 86.2827 47.9598 82.8755C47.9598 80.6709 47.66 75.3095 41.9149 71.6017C36.1698 67.8938 27.8768 67.4428 20.6829 70.4993C13.489 73.5057 10.0419 78.1154 10.6914 79.2679C11.6905 80.9214 13.7388 79.0675 18.2849 77.5643C22.3315 76.1613 26.9776 76.4118 28.776 78.6165C30.9742 81.2721 30.4746 84.6794 28.3764 86.7337C26.3281 88.738 21.6821 88.4874 17.8353 86.6836C13.489 84.6794 11.6406 82.625 10.4416 84.1783C9.64226 85.2305 12.6397 90.1409 19.4839 93.8989C26.2782 97.6568 34.5711 98.1078 40.666 95.0012Z" fill="#E58961"/>
<path d="M37.7685 85.5312C36.02 85.431 34.6711 84.3788 34.7211 83.1762C34.771 81.9737 36.2698 81.0217 38.0183 81.1219C39.7668 81.2221 41.1156 82.2743 41.0657 83.4769C41.0157 84.7295 39.517 85.6314 37.7685 85.5312Z" fill="white"/>
<path d="M92.4219 55.718C99.6658 54.8662 102.713 51.7095 102.713 53.8641C102.763 57.3715 103.363 59.4259 105.861 60.1775C110.656 61.5303 115.103 57.3715 115.902 51.0582C116.701 44.7448 113.104 38.4314 108.858 37.1788C104.961 36.0263 102.114 37.8301 102.014 40.4858C101.964 41.2875 102.014 42.1393 102.014 42.9911C102.164 48.7032 95.4194 44.6446 90.1738 44.6947C84.5286 44.7448 84.3288 56.6701 92.4219 55.718Z" fill="#C69C6D"/>
<path d="M107.709 63.3843C106.81 63.3843 105.961 63.2339 105.062 63.0335C102.564 62.332 101.265 60.7286 100.565 59.025C97.5179 62.1817 95.5196 68.3448 95.4697 78.0654C95.3697 94.6505 88.8752 97.9074 86.777 105.824C86.3774 107.428 86.3274 108.78 86.5772 109.933C86.5772 109.983 86.5272 110.033 86.5272 110.083C85.7279 112.188 82.4807 114.442 81.2817 114.843C80.0827 115.244 83.4798 117.349 83.4798 117.349C83.4798 117.349 86.9269 114.092 90.4739 113.791C93.5213 114.392 96.1691 113.29 96.9684 112.889C103.613 109.382 108.409 99.0598 112.505 86.1325C116.152 74.7584 116.352 66.09 113.804 61.1295C112.056 62.5826 109.957 63.3843 107.709 63.3843Z" fill="#8CC63F"/>
<path d="M58.9009 60.5784C52.5563 53.6637 43.7637 49.5049 34.2218 48.9036C24.6799 48.3024 15.4378 51.2586 8.29381 57.3215C5.84588 59.3758 5.19643 62.6327 6.34546 65.3886L3.09821 66.3907C2.14901 66.6913 1.89923 67.8939 2.59863 68.5453L6.09567 71.8022C6.79508 72.4535 7.99406 72.1028 8.19389 71.1508L8.79338 68.3949C11.5411 70.3491 15.4378 70.299 18.0855 68.0442C26.7282 60.7287 40.0169 61.5805 47.7104 69.9482C55.4039 78.316 54.6046 91.0429 45.9119 98.3584C37.2693 105.674 23.9805 104.822 16.287 96.4544C13.989 93.9992 10.3421 93.3478 7.44453 94.7508L6.79508 91.8446C6.59525 90.8926 5.39626 90.4918 4.69685 91.1932L1.19982 94.4501C0.500411 95.1015 0.750199 96.3542 1.69939 96.6047L4.34715 97.4565C2.69855 100.062 2.94834 103.469 5.14647 105.874C11.4911 112.789 20.2836 116.948 29.8256 117.549C39.3675 118.15 48.6096 115.194 55.7536 109.131C70.641 96.6548 72.0398 74.9087 58.9009 60.5784Z" fill="#EAA4A4"/>
<path d="M69.9911 25.4039C68.7422 25.2536 68.8421 26.3559 68.1927 27.5585C67.5432 28.8612 66.7939 30.0137 66.3442 29.9635C65.8447 29.9134 66.7939 27.9593 66.644 26.5563C66.4941 25.3037 65.8447 24.8026 64.5957 24.7024C60.8489 24.4018 56.7024 24.3016 52.6558 24.502C50.5077 24.6022 47.4103 24.4018 46.3612 25.3037C45.7617 25.8047 45.7117 26.9572 45.5618 27.5083C45.412 28.1096 44.3129 28.3602 44.4628 26.8069C44.5127 26.0052 44.163 25.3538 43.8133 25.4039C42.3646 25.454 41.6152 25.6544 40.4662 25.905C35.0707 27.0073 31.3239 28.6608 31.4238 30.7151C31.4738 32.3185 32.2231 33.7716 37.4687 34.5733C42.3146 35.3249 45.9615 35.6757 52.2062 36.8782C52.8057 36.9784 53.4552 37.0786 53.9048 37.0786C55.2536 37.0285 56.1529 34.6234 56.2028 33.4209C56.2528 32.2183 57.2519 32.9198 57.3519 33.7215C57.4518 34.5232 56.7524 36.6778 57.1021 37.3793C57.3519 37.8803 57.7515 37.9805 58.2511 38.0807C60.4492 38.5818 62.0479 38.7822 69.5415 40.9869C78.7337 43.7427 82.9801 26.7066 69.9911 25.4039Z" fill="#F7931E"/>
<path d="M9.4424 35.5754C12.5398 35.826 13.9885 34.8239 13.6388 32.4689C13.5389 31.9177 13.489 31.3164 13.3891 30.7151C13.5389 26.9572 17.8353 29.0115 21.4822 28.5105C25.4289 27.9593 23.9301 20.0425 19.5338 21.5958C14.7379 23.2994 13.3391 25.5041 12.5398 24.2515C12.0902 21.8464 11.3408 20.0425 10.0419 19.8922C6.54485 19.5916 3.24765 22.3975 3.24765 26.9572C3.19769 31.5168 6.39498 35.3249 9.4424 35.5754Z" fill="#C69C6D"/>
<path d="M69.5414 14.4306C69.1418 11.9253 69.7413 9.57031 71.2899 7.61617C72.439 6.2132 73.8877 5.21108 75.2366 4.65991C73.3882 3.758 71.0901 2.75588 68.7421 2.90619C64.4458 3.15673 61.0486 9.42 60.0994 13.0777C59.0503 16.9359 56.8022 16.3848 56.8022 13.679C56.8022 10.9733 59.1003 6.11299 60.0994 3.40726C61.1486 0.701524 58.9005 0.501099 58.6007 0.450993C55.3535 -0.100175 51.3568 -0.0500688 48.6092 0.601311C44.4127 1.60343 39.9665 7.06501 38.9674 10.9733C37.9182 14.8315 35.6701 14.2803 35.6701 11.5746C35.6701 8.86883 37.3687 5.16097 38.3679 2.45524C38.6676 1.60343 39.2671 0.551205 37.8183 0.35078C32.3729 -0.450918 28.8759 0.250568 26.0783 1.50322C22.1816 3.20683 19.6837 7.46586 18.135 10.7729C16.4364 14.4306 14.8378 14.0799 14.8378 11.3741C14.8378 8.6684 16.4364 4.25906 17.0359 3.05651C17.9851 1.10237 11.2908 1.3028 5.99529 4.76012C2.99783 6.71426 1.09944 9.06925 1.1494 13.0777C1.19936 15.1822 2.29843 17.0862 4.19682 18.6896C5.69555 17.5372 7.54398 16.8858 9.54229 16.8858C11.7904 16.8858 13.4889 17.7877 14.638 20.5436C16.2366 19.6918 18.8844 18.389 20.6828 18.389C23.7802 18.389 26.2781 20.8943 26.7277 24.3516C29.1257 24.3015 31.5736 24.1011 34.0715 23.7002C43.7133 22.1971 61.1985 21.2952 71.24 22.5478C72.9885 22.7482 75.2866 21.8964 75.936 21.245C74.2874 20.8442 70.3907 19.6918 69.5414 14.4306Z" fill="#DB9F40"/>
<path d="M115.203 27.1576C117.401 25.4039 119.499 20.3933 116.452 15.9839C114.703 13.4285 116.452 13.5287 116.952 9.87099C117.701 4.50963 114.204 2.05443 111.606 1.60348C105.761 0.601354 104.462 3.60772 103.363 3.60772C100.715 3.60772 99.966 0.350823 95.9693 0.501141C91.8728 0.65146 91.3732 3.75804 88.9753 3.60772C87.1768 3.4574 85.3284 -0.551088 81.3317 1.20263C77.3851 2.95634 79.2835 7.01494 77.535 7.16526C75.9863 7.26547 71.7399 9.57036 72.4892 13.9797C73.1387 17.7878 75.9363 18.1886 77.1853 18.5394C80.0828 19.3912 83.4799 15.8837 85.2784 18.1886C87.0769 20.5436 86.2775 20.9445 89.1251 22.9988C93.7712 26.3058 95.8195 21.5958 97.3681 25.8048C98.2674 28.3101 99.4664 29.1118 100.266 29.8132C100.915 30.4145 101.265 31.6672 101.265 32.3687C101.265 33.4209 101.864 34.4731 103.163 34.423C103.963 34.3729 106.061 33.2205 109.758 34.3228C112.156 35.0243 114.304 36.778 115.902 39.0829C117.251 37.4795 117.701 35.1746 117.401 33.4209C116.702 29.5126 113.005 28.9113 115.203 27.1576Z" fill="#009245"/>
<path d="M99.6154 37.7801C98.2666 38.1308 96.8678 38.4815 95.6188 38.7822C93.8204 39.2331 94.9694 36.2769 96.6679 34.1223C97.3674 33.2204 98.7162 31.4166 99.9652 29.5626C99.2158 28.9113 98.2166 28.1096 97.4173 26.0552C96.2183 27.9592 94.5697 30.1639 92.4715 32.2684C91.2226 33.5711 91.1226 31.8675 91.6722 30.3643C92.3716 28.3601 93.2209 26.2556 94.0202 24.1011C92.9711 24.3015 91.6722 24.4518 89.9736 23.5499C89.7238 24.3015 89.3741 25.0531 89.0244 25.8548C86.9262 30.3643 85.7772 24.8527 85.7772 24.8527L84.1286 17.4871C82.5299 17.1363 80.3318 18.6896 78.2336 18.7397C80.082 20.6939 81.4808 23.4998 82.0304 26.7567C82.3801 28.7108 82.43 34.8238 78.3834 42.5401C77.5841 44.0934 80.032 46.4484 81.3809 47.2501C81.9804 47.6009 82.6798 47.8514 83.3792 47.9516C84.1286 44.3941 86.7763 41.8387 90.1735 41.7885C90.2234 41.7885 90.3233 41.7885 90.3733 41.7885C92.3216 41.7885 94.27 42.2395 96.0185 42.5902C97.1675 42.8408 98.2666 43.0913 99.0659 43.1414V43.0913C99.0659 42.7907 99.0659 42.49 99.0659 42.1393C99.0659 41.5881 99.016 41.037 99.0659 40.4858C99.0659 39.4336 99.2657 38.5818 99.6154 37.7801Z" fill="#8CC63F"/>
</g>
<defs>
<clipPath id="clip0">
<rect width="118" height="118" fill="white"/>
</clipPath>
</defs>
</svg>
